<?xml version="1.0" encoding="UTF-8"?>
<!-- Generator: Adobe Illustrator 22.0.1, SVG Export Plug-In . SVG Version: 6.00 Build 0)  -->
<svg version="1.1" id="Layer_1" xmlns="http://www.w3.org/2000/svg" xmlns:xlink="http://www.w3.org/1999/xlink" x="0px" y="0px" viewBox="0 0 160 160" style="enable-background:new 0 0 160 160;" xml:space="preserve">
<style type="text/css">
	.st0{fill:#2D83C5;}
</style>
<path class="st0" d="M31.9,89.1C31.9,89.1,31.9,89.1,31.9,89.1c-0.2,0.5-0.5,0.9-0.9,1.3c0,0,0,0,0,0c-0.6,0.7-1.4,1.3-2.4,1.6  l-9.7,3c-0.4,0.1-0.9,0.1-1.3-0.2c-0.4-0.3-0.6-0.7-0.7-1.1l-1.8-19l0.4,0l0.9,0.1l1.7,0.1c0.5,0,1,0.4,1,0.9l1.8,14l3.7-0.8  l-2.1-13.7l0.4,0l0.7,0l1.2,0.1c0.4,0,0.8,0.4,0.8,0.8l2.2,12.1l2.8-0.6l-2.4-12c-0.3-1.5-1.7-2.8-3.1-3l-12.9-1.8  c-0.4-0.1-0.9,0.1-1.2,0.4c-0.3,0.3-0.5,0.7-0.5,1.2L11.7,94l0.1,1.2l0,0.5c-3.7-0.9-6.5-3.8-6.5-7.8l-0.1-14c0-1.7,0.7-3.1,1.8-4.1  c1-0.9,2.3-1.6,3.8-1.8c1.2-0.2,2.5-0.2,3.9,0l10,2c2.8,0.5,5.4,3.1,6,5.9l1.8,8.3C32.8,85.8,32.6,87.6,31.9,89.1z"/>
<g>
	<path class="st0" d="M41.5,73.7H46l1.1,10.6h0l5.6-10.6h4.5l-3.1,14.6h-3l2.7-11.6h0l-6.2,11.6h-2.5l-1.4-11.6h0l-2.2,11.6h-3.1   L41.5,73.7z"/>
	<path class="st0" d="M59.1,77.8H62l-2.3,10.6h-2.9L59.1,77.8z M62.4,76.1h-2.9l0.5-2.4h2.9L62.4,76.1z"/>
	<path class="st0" d="M70.4,81.4c0-1.3-0.7-1.8-1.9-1.8c-2.2,0-3,2.7-3,4.5c0,1.3,0.5,2.3,2,2.3c1.3,0,2-0.9,2.4-2h2.9   c-0.9,2.6-2.7,4.2-5.5,4.2c-3,0-4.7-1.5-4.7-4.6c0-3.6,2.2-6.6,6-6.6c2.6,0,4.7,1.1,4.8,4H70.4z"/>
	<path class="st0" d="M75.8,77.8h2.8l-0.4,1.9l0,0c0.7-1.5,2.1-2.2,3.7-2.2c0.3,0,0.6,0,0.9,0.1l-0.6,2.8c-0.4-0.1-0.8-0.2-1.2-0.2   c-2.2,0-3,1.7-3.4,3.5l-1,4.7h-2.9L75.8,77.8z"/>
	<path class="st0" d="M88.1,77.5c2.9,0,4.9,1.4,4.9,4.5c0,3.7-2.3,6.7-6.2,6.7c-3,0-4.9-1.5-4.9-4.6C82,80.5,84.3,77.5,88.1,77.5z    M87,86.4c2.2,0,3.1-2.7,3.1-4.5c0-1.4-0.6-2.3-2.1-2.3c-2.1,0-3.1,2.6-3.1,4.4C84.9,85.3,85.6,86.4,87,86.4z"/>
	<path class="st0" d="M105.5,88.4h-3l-0.4-7.4h0l-3.3,7.4h-3.1l-1.2-10.6h3l0.4,7.5h0l3.3-7.5h3l0.3,7.4h0l3.4-7.4h3.1L105.5,88.4z"/>
	<path class="st0" d="M113.7,83.8c0,0.3,0,0.5,0,0.6c0,1.2,0.8,2.1,2.3,2.1c1.2,0,1.7-0.8,2.2-1.5h2.9c-0.9,2.4-2.4,3.7-5.5,3.7   c-2.8,0-4.7-1.6-4.7-4.6c0-3.4,2.2-6.5,5.8-6.5c3,0,4.9,1.6,4.9,4.6c0,0.6-0.1,1.1-0.2,1.7H113.7z M118.8,81.9c0-1.1-0.3-2.3-2-2.3   c-1.6,0-2.5,1.1-2.9,2.3H118.8z"/>
	<path class="st0" d="M125.3,73.7h2.9l-1.1,5.2h0c0.9-1,1.7-1.4,3.1-1.4c2.7,0,3.8,2.1,3.8,4.5c0,3.3-1.9,6.7-5.5,6.7   c-1.5,0-2.8-0.5-3.3-1.9h0l-0.3,1.7h-2.7L125.3,73.7z M125.9,84.2c0,1.3,0.8,2.2,2.1,2.2c2.2,0,3.1-2.6,3.1-4.4   c0-1.3-0.6-2.4-2.1-2.4C126.8,79.7,125.9,82.3,125.9,84.2z"/>
	<path class="st0" d="M138,83.8c0,0.3,0,0.5,0,0.6c0,1.2,0.8,2.1,2.3,2.1c1.2,0,1.7-0.8,2.2-1.5h2.9c-0.9,2.4-2.4,3.7-5.5,3.7   c-2.8,0-4.7-1.6-4.7-4.6c0-3.4,2.2-6.5,5.8-6.5c3,0,4.9,1.6,4.9,4.6c0,0.6-0.1,1.1-0.2,1.7H138z M143.2,81.9c0-1.1-0.3-2.3-2-2.3   c-1.6,0-2.5,1.1-2.9,2.3H143.2z"/>
	<path class="st0" d="M148.7,77.8h2.8l-0.4,1.9l0,0c0.7-1.5,2.1-2.2,3.6-2.2c0.3,0,0.6,0,0.9,0.1l-0.6,2.8c-0.4-0.1-0.8-0.2-1.2-0.2   c-2.2,0-3,1.7-3.4,3.5l-1,4.7h-2.9L148.7,77.8z"/>
</g>
</svg>